<svg width="132" height="132" viewBox="0 0 132 132" fill="none" xmlns="http://www.w3.org/2000/svg">
<path d="M65.1797 11.001L66 11.3701L66.8203 11.001L85.5547 2.57324L95.998 21.0967L96.4268 21.8574L97.2773 22.0596L117.256 26.8135L115.368 48.2881L115.295 49.1104L115.824 49.7441L129.395 66L115.824 82.2559L115.295 82.8896L115.368 83.7119L117.256 105.186L97.2773 109.94L96.4287 110.142L95.999 110.901L85.5566 129.364L66.8203 120.937L65.9971 120.565L65.1748 120.938L46.4395 129.423L36.001 110.964L35.5713 110.205L34.7227 110.003L14.7432 105.248L16.6328 83.7119L16.7041 82.8896L16.1758 82.2559L2.60254 65.9971L16.1777 49.6787L16.7041 49.0459L16.6328 48.2256L14.7432 26.6934L34.7178 21.998L35.5703 21.7979L36.001 21.0361L46.4424 2.57227L65.1797 11.001Z" stroke="#F8F200" stroke-width="4"/>
</svg>
